<svg xmlns="http://www.w3.org/2000/svg" xmlns:xlink="http://www.w3.org/1999/xlink" width="174.3" height="52.5"><defs><path id="a" d="M0 0h174.3v52.5H0z"/></defs><clipPath id="b"><use xlink:href="#a" overflow="visible"/></clipPath><path clip-path="url(#b)" fill="#880C32" d="M64.4 36.6c0 1.8-.5 3-3.7 3-.7 0-1.5 0-2.4-.2v-2.3c.7.1 1.4.1 2.2.1 1.1 0 1.4-.2 1.4-1.2v-5.5h-3.1v-2.3h5.6v8.4zm9.6.6v2.3h-6.9V28.3h6.8v2.3h-4.3v2h3.3v2.3h-3.3v2.3zm2.1-8.9h2.5l3.2 5.9 3.3-5.9h2.3v11.2H85V33l-2.3 4.3h-1.8L78.6 33v6.5h-2.5zm14.2 0h2.5l3.2 5.9 3.2-5.9h2.4v11.2h-2.5V33l-2.3 4.3h-1.7L92.8 33v6.5h-2.5zm21 8.9v2.3h-6.8V28.3h6.8v2.3h-4.4v2h3.4v2.3h-3.4v2.3zm3.6 1.1l-2-10h2.6l1.6 8.7c0 .2.1.3.4.3.3 0 .4-.1.4-.3l1.6-8.7h2.6l-2 10c-.2 1.1-.6 1.4-2.6 1.4-2-.1-2.4-.3-2.6-1.4m19.7-1.1v2.3h-5.7v-3h-2.8l-.6 3h-2.6l2.1-9.4c.3-1.5.6-1.8 2.8-1.8h6.8v2.3h-3.2v2.1h2.4v2.2h-2.4v2.2h3.2zm-5.8-6.6h-.8c-.7 0-.8.1-.9.8l-.6 2.9h2.3v-3.7zm11.8 5.3l-1.4.6v3h-2.5V28.3h4.2c2.4 0 3.6.6 3.6 3.2v.3c0 2.2-.3 2.8-1.6 3.3h-.1l2.2 4.4h-2.8l-1.6-3.6zm-1.4-1.9l2.1-.7c.5-.2.8-.3.8-1.3v-.2c0-1-.3-1.2-1-1.2h-1.8V34zm8-5.7h2.1l3.7 6.2v-6.2h2.5v11.2h-2.1l-3.7-6.2v6.2h-2.5zm18 8.9v2.3h-6.9V28.3h6.8v2.3h-4.3v2h3.3v2.3h-3.3v2.3zm9.1-6.6h-2.6v8.9h-2.5v-8.9h-2.8v-2.3h7.9zm-157 18.6c-7.9-.9-13.9-7.5-13.9-15.5 0-3.7 1.3-7.1 3.4-9.8l-2.4-2.4C1.7 24.8 0 29 0 33.7c0 9.9 7.6 18 17.3 18.9v-3.4zm13.8-25.3c2.2 2.7 3.4 6.1 3.4 9.8 0 8-6.1 14.7-13.9 15.5v3.4c9.7-.9 17.3-9 17.3-18.9 0-4.6-1.7-8.9-4.4-12.2l-2.4 2.4z"/><path clip-path="url(#b)" fill="#880C32" d="M15.3 28.3v11.2h-2.5V35h-2.7v4.5H7.6V28.3h2.5v4.4h2.7v-4.4zm6.1 8.3c0 1.8-.5 3-3.7 3-.7 0-.8 0-1.7-.2v-2.3c.7.1.7.1 1.6.1 1.1 0 1.4-.2 1.4-1.2v-7.8h2.5v8.4zm2.7 1.7l-2-10h2.6l1.6 8.7c0 .2.1.3.4.3.3 0 .4-.1.4-.3l1.6-8.7h2.6l-2 10c-.2 1.1-.6 1.4-2.6 1.4-2.1-.1-2.4-.3-2.6-1.4m3.1-28.2c.5 0 .8.3.8.6 0 .2-.1.4-.3.7l-3.3 3.9h2.5l2.3-2.7c.6-.7.8-1.4.8-2.1 0-1.3-1.1-2.3-2.7-2.3h-.4v1.9h.3zm-16.5 0h.3V8.2h-.4c-1.6 0-2.7 1-2.7 2.3 0 .7.3 1.4.9 2.1l2.3 2.7h2.5l-3.3-3.9c-.2-.2-.3-.5-.3-.7-.1-.3.2-.6.7-.6"/><path clip-path="url(#b)" fill="#880C32" d="M14.6 10.1h2.1V8.2h-2.1c-1.8 0-2.9 1-2.9 2.3 0 .7.3 1.4.9 2.1l2.2 2.7h2.5L14 11.4c-.2-.2-.3-.5-.3-.7.1-.3.4-.6.9-.6m8.7 0c.5 0 .8.3.8.6 0 .2-.1.4-.3.7l-3.3 3.9H23l2.2-2.7c.6-.7.8-1.4.8-2.1 0-1.3-1.1-2.3-2.9-2.3H21v1.9h2.3zM18 8.2h1.9v7.1H18zm-6.3 8.3h14.5v3.4H11.7zm9-10.9c0 1-.8 1.8-1.8 1.8s-1.8-.8-1.8-1.8.8-1.8 1.8-1.8 1.8.8 1.8 1.8M18.5 1h-1.2v1h1.2v1h.9V2h1.2V1h-1.2V0h-.9zm37.8 27.3v11.2h-2.5V35h-3.4v4.5H48V28.3h2.4v4.4h3.4v-4.4z"/></svg>