<svg width="41" height="60" viewBox="0 0 41 60" fill="none" xmlns="http://www.w3.org/2000/svg">
<path d="M20.5 59C20.1427 59 19.8124 58.8094 19.6338 58.5L3.61231 30.75C3.48909 30.5365 3.45412 30.2893 3.50098 30.0547C1.91011 27.23 1 23.9704 1 20.5C1 9.73046 9.73043 0.999997 20.5 0.999998C31.2696 1 40 9.73046 40 20.5C40 23.9703 39.0907 27.2301 37.5 30.0547C37.5468 30.2893 37.5109 30.5366 37.3877 30.75L21.3662 58.5C21.1876 58.8094 20.8573 59 20.5 59Z" fill="#002855" stroke="white" stroke-width="2" stroke-linejoin="round"/>
<circle cx="20.5" cy="19.5" r="6.5" fill="white"/>
<circle cx="20.5" cy="19.5" r="6" stroke="#002855" stroke-opacity="0.6"/>
</svg>
